# xmcd
#
# Track frame offsets:
# 150
# 16350
# 32953
# 51075
# 72000
# 87600
# 104925
# 122775
# 149865
# 165840
# 187585
# 204525
#
# Disc length: 2883 seconds
#
#
# Revision: 0
# Processed by: cddbd v1.4PL0 Copyright (c) Steve Scherf et al.
# Submitted via: FreeRIP 2.12 
#
DISCID=ad0b410c
DTITLE=Joe Taino - hoodoo man
DYEAR=1900
DGENRE=Blues
TTITLE0=I Just Wanna Make Love To You
TTITLE1=Junkyard Dog
TTITLE2=Goin To Chicago
TTITLE3=HooDoo Man
TTITLE4=Loiza Aldea
TTITLE5=Dozen For A Dime
TTITLE6=Odd Blues
TTITLE7=Cold Pillow
TTITLE8=Jelly Donut
TTITLE9=Yo Tenga el Blues
TTITLE10=Tell Me All About It
TTITLE11=Cry Of The Warrior
EXTD=
EXTT0=
EXTT1=
EXTT2=
EXTT3=
EXTT4=
EXTT5=
EXTT6=
EXTT7=
EXTT8=
EXTT9=
EXTT10=
EXTT11=
PLAYORDER=
